<svg width="46" height="16" viewBox="0 0 46 16" fill="none" xmlns="http://www.w3.org/2000/svg">
<path d="M1 7C0.447715 7 0 7.44772 0 8C0 8.55228 0.447715 9 1 9V7ZM45.2071 8.70711C45.5976 8.31658 45.5976 7.68342 45.2071 7.29289L38.8431 0.928932C38.4526 0.538408 37.8195 0.538408 37.4289 0.928932C37.0384 1.31946 37.0384 1.95262 37.4289 2.34315L43.0858 8L37.4289 13.6569C37.0384 14.0474 37.0384 14.6805 37.4289 15.0711C37.8195 15.4616 38.4526 15.4616 38.8431 15.0711L45.2071 8.70711ZM1 9H44.5V7H1V9Z" fill="black"/>
</svg>
